<?xml version="1.0" encoding="UTF-8" standalone="no"?>
<svg
   xmlns:dc="http://purl.org/dc/elements/1.1/"
   xmlns:cc="http://creativecommons.org/ns#"
   xmlns:rdf="http://www.w3.org/1999/02/22-rdf-syntax-ns#"
   xmlns:svg="http://www.w3.org/2000/svg"
   xmlns="http://www.w3.org/2000/svg"
   xmlns:sodipodi="http://sodipodi.sourceforge.net/DTD/sodipodi-0.dtd"
   xmlns:inkscape="http://www.inkscape.org/namespaces/inkscape"
   width="15.345809mm"
   height="15.34581mm"
   viewBox="0 0 15.345809 15.34581"
   version="1.1"
   id="svg47"
   inkscape:version="1.0.1 (3bc2e813f5, 2020-09-07)"
   sodipodi:docname="up.svg">
  <defs
     id="defs41" />
  <sodipodi:namedview
     id="base"
     pagecolor="#ffffff"
     bordercolor="#666666"
     borderopacity="1.0"
     inkscape:pageopacity="0.0"
     inkscape:pageshadow="2"
     inkscape:zoom="7.9195959"
     inkscape:cx="66.271622"
     inkscape:cy="34.349681"
     inkscape:document-units="mm"
     inkscape:current-layer="layer1"
     inkscape:document-rotation="0"
     showgrid="false"
     fit-margin-top="0"
     fit-margin-left="0"
     fit-margin-right="0"
     fit-margin-bottom="0"
     inkscape:window-width="1920"
     inkscape:window-height="1137"
     inkscape:window-x="1912"
     inkscape:window-y="-8"
     inkscape:window-maximized="1" />
  <metadata
     id="metadata44">
    <rdf:RDF>
      <cc:Work
         rdf:about="">
        <dc:format>image/svg+xml</dc:format>
        <dc:type
           rdf:resource="http://purl.org/dc/dcmitype/StillImage" />
        <dc:title></dc:title>
      </cc:Work>
    </rdf:RDF>
  </metadata>
  <g
     inkscape:label="Ebene 1"
     inkscape:groupmode="layer"
     id="layer1"
     transform="translate(-49.401501,-75.859847)">
    <path
       d="m 64.437152,87.390809 c -1.267229,-1.885538 -6.585106,-9.418007 -6.754478,-9.567993 -0.28977,-0.25916 -0.938178,-0.25916 -1.187647,0 -0.109686,0.109686 -1.72586,2.394677 -3.601707,5.078101 -2.234998,3.202767 -3.422133,4.978623 -3.461925,5.19799 -0.03981,0.259161 0.01017,0.38925 0.24946,0.658612 l 0.29946,0.339256 6.82437,0.0301 c 3.751183,0.01997 6.964153,0 7.153422,-0.0301 0.827985,-0.149478 1.037658,-0.887674 0.479037,-1.705966 z M 57.074056,87.25153 h -4.898528 l 0.179584,-0.269363 c 0.837678,-1.287125 4.668956,-6.664691 4.748541,-6.664691 0.0898,0 4.858735,6.714687 4.868937,6.864162 0,0.03981 -2.204899,0.06991 -4.898528,0.06991 z"
       id="path1644"
       style="fill:#f9152f;fill-opacity:1;stroke:#f9152f;stroke-width:0.00510157;stroke-opacity:1" />
    <path
       d="m 83.451483,80.349242 c -0.05192,0.05192 -0.103846,0.155974 -0.119995,0.22793 -0.01206,0.07604 -0.02003,1.363291 -0.01206,2.866406 l 0.01206,2.734553 0.13594,0.119995 c 0.107935,0.09587 0.159858,0.115908 0.263909,0.09996 0.18398,-0.03209 4.085783,-2.762559 4.165712,-2.918533 0.07196,-0.139825 0.04007,-0.30786 -0.07993,-0.419883 -0.09996,-0.09199 -3.802045,-2.690602 -3.933897,-2.75847 -0.143914,-0.07972 -0.327893,-0.05581 -0.43174,0.04804 z m 2.042789,1.986982 c 0.759632,0.531701 1.375352,0.979385 1.367175,0.999419 -0.008,0.02392 -2.302814,1.643144 -2.698575,1.907053 l -0.09199,0.05601 v -1.96286 c 0,-1.079348 0.01206,-1.96286 0.02392,-1.96286 0.01227,-2.04e-4 0.64393,0.435623 1.399473,0.963237 z"
       id="path1646"
       style="stroke-width:0.00204422" />
    <path
       d="m 77.68249,81.812494 c -0.491839,0.07196 -0.939524,0.411911 -1.163366,0.879628 -0.09199,0.191953 -0.103846,0.271882 -0.103846,0.639637 0,0.379816 0.01206,0.4438 0.112023,0.647609 0.155974,0.315832 0.415795,0.571768 0.739599,0.723654 0.243876,0.115907 0.303771,0.127968 0.647609,0.127968 0.339749,0 0.407822,-0.01206 0.639636,-0.12388 0.311744,-0.147797 0.583625,-0.415794 0.743688,-0.727538 0.107934,-0.207897 0.115907,-0.263909 0.115907,-0.647609 0,-0.35181 -0.01595,-0.451772 -0.09199,-0.615719 -0.296003,-0.643929 -0.943612,-0.999623 -1.63926,-0.90375 z m 0.4438,0.763721 c 0.343838,0.09199 0.623692,0.519641 0.559708,0.847534 -0.07993,0.415794 -0.371844,0.667642 -0.771489,0.667642 -0.871451,0 -1.075464,-1.207316 -0.255936,-1.499231 0.191747,-0.06807 0.271676,-0.07196 0.467717,-0.01595 z"
       id="path1648"
       style="stroke-width:0.00204422" />
    <path
       d="m 75.031954,88.788804 c -0.119995,0.06398 -0.211781,0.25982 -0.187863,0.391877 0.02003,0.09587 2.734553,4.009942 2.85046,4.105816 0.103846,0.0879 0.363871,0.07196 0.455657,-0.02003 0.04395,-0.04395 0.699532,-0.96753 1.459164,-2.05485 0.883512,-1.25924 1.383323,-2.0109 1.383323,-2.070795 0,-0.155974 -0.107934,-0.319921 -0.243875,-0.367755 -0.0879,-0.03189 -0.963441,-0.04395 -2.870494,-0.04395 -2.290753,0.0037 -2.75847,0.01165 -2.846372,0.05969 z m 4.841327,0.715682 c 0,0.04783 -1.926882,2.762558 -1.958976,2.762558 -0.03189,0 -1.958976,-2.714519 -1.958976,-2.762558 0,-0.008 0.883511,-0.01595 1.958976,-0.01595 1.079552,-2.05e-4 1.958976,0.008 1.958976,0.01595 z"
       id="path1650"
       style="stroke-width:0.00204422" />
    <path
       d="m 77.702523,73.377021 c -0.07993,0.06398 -2.086944,2.890527 -2.734553,3.853968 -0.16783,0.243875 -0.171919,0.391877 -0.01594,0.547646 l 0.115908,0.115907 h 2.858432 2.858433 l 0.104051,-0.123879 c 0.0599,-0.07196 0.103846,-0.171919 0.103846,-0.239787 0,-0.0879 -0.331776,-0.587714 -1.383323,-2.094917 -0.759632,-1.087321 -1.427275,-2.014988 -1.483082,-2.058938 -0.132056,-0.09996 -0.291914,-0.103847 -0.423767,0 z m 1.191372,2.34288 c 0.527817,0.759632 0.963441,1.39518 0.971413,1.41133 0.0041,0.01595 -0.871451,0.03209 -1.951003,0.03209 -1.079349,0 -1.958976,-0.01206 -1.951004,-0.03209 0.02003,-0.0599 1.93097,-2.790565 1.951004,-2.790565 0.01206,-2.04e-4 0.451772,0.619603 0.97959,1.379235 z"
       id="path1642"
       style="stroke-width:0.00204422" />
  </g>
</svg>
